<svg width="114" height="117" viewBox="0 0 114 117" fill="none" xmlns="http://www.w3.org/2000/svg">
<path d="M103.042 63.2329L102.005 62.1799C99.7049 59.7534 99.7049 55.8617 102.095 53.481C107.597 47.8953 110.347 40.5699 110.347 33.1987C110.347 25.8733 107.597 18.5021 102.095 12.9165C102.05 12.8707 102.005 12.8707 101.96 12.8249C101.915 12.7791 101.915 12.7334 101.869 12.6876C96.3679 7.10195 89.1076 4.30914 81.8924 4.30914C74.6773 4.30914 67.4621 7.10195 61.9154 12.6876C60.7429 13.878 59.2097 14.4731 57.6314 14.5189C56.0981 14.5189 54.5198 13.9695 53.3473 12.7791L52.3102 11.7719C40.9011 0.188592 22.3671 0.188592 10.9581 11.7719L10.913 11.8177C5.18595 17.6322 2.34497 25.2323 2.34497 32.8325C2.34497 40.4326 5.18595 48.0327 10.913 53.8472L11.9051 54.9003C14.25 57.3268 14.2049 61.2184 11.8149 63.5992C6.35842 69.139 3.60763 76.4644 3.60763 83.7899C3.60763 91.1153 6.35842 98.4407 11.86 104.072L12.0855 104.301C17.6322 109.887 24.8473 112.679 32.0625 112.679C39.2777 112.679 46.4929 109.887 52.0396 104.301C53.2121 103.111 54.7904 102.515 56.3236 102.47C57.8568 102.47 59.4352 103.019 60.6076 104.209L61.6448 105.217C73.0538 116.8 91.5879 116.8 102.997 105.217L103.042 105.171C114.496 93.5876 114.496 74.8162 103.042 63.2329ZM97.1796 99.2648C87.2136 109.383 71.0246 109.383 61.0586 99.2648L60.1567 98.3491C59.1195 97.3419 57.7666 96.8383 56.4138 96.8383C55.061 96.8383 53.7081 97.3877 52.6709 98.4407C47.8458 103.34 41.5776 105.766 35.2643 105.766C28.951 105.766 22.6828 103.34 17.8576 98.4407L17.6772 98.2576C12.8521 93.3587 10.4621 86.9489 10.4621 80.585C10.4621 74.1753 12.8521 67.7655 17.6772 62.9124C19.7516 60.8064 19.7516 57.4184 17.7223 55.3123L16.8204 54.3966C11.8149 49.3146 9.33469 42.7218 9.33469 36.0831C9.33469 29.4445 11.8149 22.8058 16.8204 17.7696C26.7864 7.65136 42.9304 7.65136 52.8964 17.7696L53.7983 18.6395C54.8355 19.6467 56.1883 20.1961 57.5412 20.1503C58.894 20.1503 60.2469 19.6009 61.2841 18.5479C66.1092 13.649 72.3774 11.2225 78.6907 11.2225C85.004 11.2225 91.3173 13.649 96.0974 18.5479C96.1424 18.5937 96.1424 18.5937 96.1875 18.6395C96.2326 18.6853 96.2777 18.6853 96.2777 18.731C101.103 23.6299 103.493 29.9939 103.493 36.4036C103.493 42.8133 101.103 49.2231 96.2777 54.0762C94.2034 56.1822 94.2034 59.5702 96.2326 61.6763L97.0894 62.592C107.146 72.7102 107.146 89.1008 97.1796 99.2648Z" fill="#024AB5"/>
<path d="M82.2983 116.022C74.2714 116.022 66.2896 112.908 60.2017 106.728L59.1646 105.72C58.3979 104.988 57.4059 104.576 56.3236 104.576H56.2785C55.1962 104.576 54.2041 105.034 53.4375 105.766C47.7104 111.581 40.0894 114.786 32.0174 114.786C23.9454 114.786 16.3244 111.581 10.5973 105.766L10.3718 105.537C4.64479 99.7226 1.48814 92.031 1.48814 83.7899C1.48814 75.5946 4.64479 67.8571 10.3718 62.0425C11.9502 60.4401 11.9502 57.8762 10.4169 56.228L9.42485 55.175C3.6076 49.2231 0.315674 41.2567 0.315674 32.7867C0.315674 24.2709 3.56251 16.3045 9.46994 10.3068C21.6907 -2.1006 41.5775 -2.14638 53.7532 10.261L54.7904 11.2683C55.557 12.0008 56.5491 12.4129 57.5862 12.4129H57.6313C58.7136 12.4129 59.7057 11.955 60.4723 11.2225C66.1994 5.40795 73.7753 2.20308 81.8924 2.20308C89.9644 2.20308 97.5854 5.40795 103.313 11.2225L103.403 11.3598C103.448 11.4056 103.493 11.4514 103.538 11.4514C109.265 17.266 112.422 24.9576 112.422 33.1987C112.422 41.394 109.265 49.1315 103.538 54.9461C101.96 56.5485 101.96 59.1124 103.493 60.7606L104.485 61.8136C116.661 74.221 116.661 94.3659 104.485 106.728C98.3972 112.908 90.3252 116.022 82.2983 116.022ZM63.0427 103.706C73.7302 114.557 90.9565 114.557 101.554 103.752C112.196 92.9466 112.196 75.4114 101.599 64.6522L101.509 64.5607C104.846 69.2764 106.695 74.9536 106.695 80.9055C106.695 88.3682 103.809 95.419 98.6226 100.684L98.5324 100.776C93.3465 106.041 86.447 108.925 79.0965 108.925C73.2793 108.925 67.6875 107.094 63.0427 103.706ZM12.9423 65.4305C8.25238 70.421 5.68197 76.9223 5.68197 83.8356C5.68197 90.9321 8.38767 97.6166 13.3481 102.607L13.5736 102.836C18.534 107.872 25.1179 110.619 32.0625 110.619C38.8718 110.619 45.2753 108.01 50.1907 103.248C45.8165 106.27 40.6756 107.872 35.3093 107.872C35.3093 107.872 35.3093 107.872 35.2642 107.872C28.1392 107.872 21.4201 105.079 16.4146 99.9516L16.2342 99.7684C11.1836 94.6406 8.43276 87.8646 8.43276 80.6308C8.38767 75.0909 9.96599 69.8716 12.9423 65.4305ZM56.4589 94.778C58.3529 94.778 60.2017 95.5105 61.5546 96.884L62.4565 97.7997C71.6108 107.094 86.4921 107.094 95.6464 97.7997L95.7366 97.7082C104.846 88.414 104.846 73.3512 95.6915 64.057L94.7896 63.0956C91.9937 60.1654 92.0388 55.4497 94.8797 52.5653C99.1638 48.2158 101.509 42.4929 101.509 36.3578C101.509 30.2686 99.1638 24.4998 94.9249 20.1961C94.8798 20.1503 94.8347 20.1046 94.7896 20.0588L94.6543 19.9214C90.3703 15.6177 84.7334 13.2828 78.7358 13.2828C72.693 13.2828 67.0562 15.6635 62.7722 20.013C61.3742 21.4323 59.5704 22.2106 57.5862 22.2106C57.5411 22.2106 57.5411 22.2106 57.4961 22.2106C55.6021 22.2106 53.7983 21.4781 52.4003 20.1046L51.4984 19.2347C42.2991 9.89477 27.4177 9.89477 18.2635 19.1889L18.1733 19.2805C13.754 23.813 11.3188 29.7649 11.3188 36.0831C11.3188 42.4471 13.754 48.4447 18.2184 52.9316L19.1203 53.893C21.9161 56.8232 21.8711 61.5389 19.0301 64.4233C14.7461 68.7728 12.4011 74.4958 12.4011 80.6308C12.4011 86.7658 14.7461 92.5346 19.0301 96.8383L19.2105 97.0214C23.4494 101.325 29.1313 103.752 35.1741 103.752C41.2168 103.752 46.8536 101.371 51.1377 97.0214C52.5356 95.6021 54.3394 94.8238 56.3236 94.8238C56.4138 94.778 56.4138 94.778 56.4589 94.778ZM56.3687 100.409C57.7666 100.409 59.1195 100.776 60.2919 101.417C60.0665 101.188 59.841 100.959 59.6155 100.73L58.7136 99.86C58.0823 99.2648 57.2706 98.9443 56.4138 98.9443C55.557 98.9443 54.7453 99.3106 54.1139 99.9058C53.663 100.364 53.1669 100.821 52.6709 101.279C53.7983 100.73 55.0158 100.409 56.2785 100.409C56.3236 100.409 56.3236 100.409 56.3687 100.409ZM14.701 55.1292C16.0087 57.5557 16.0538 60.4859 14.8362 62.9124C15.2872 62.4088 15.7381 61.9052 16.1891 61.4016C17.4517 60.1196 17.4517 58.0136 16.2342 56.7316L15.3774 55.8159C15.1519 55.587 14.9264 55.3581 14.701 55.1292ZM99.1638 54.0762C98.7128 54.5798 98.2619 55.0834 97.8109 55.587C96.5483 56.869 96.5483 58.975 97.7658 60.257L98.6677 61.1727C98.8932 61.4016 99.1187 61.6305 99.2991 61.8594C97.9913 59.4329 97.9462 56.5027 99.1638 54.0762ZM31.6567 5.13325C24.712 5.13325 17.7223 7.83449 12.4462 13.1912C7.26029 18.4563 4.41931 25.3697 4.41931 32.7867C4.41931 40.1579 7.26029 47.117 12.4011 52.2906L12.4462 52.3364C9.10919 47.6206 7.30539 41.9892 7.30539 36.0373C7.30539 28.5746 10.1915 21.5239 15.3774 16.2587L15.4676 16.1672C20.6535 10.902 27.553 8.01763 34.9035 8.01763C40.7658 8.01763 46.3576 9.84898 51.0024 13.2828L50.9122 13.1912C45.591 7.83449 38.6464 5.13325 31.6567 5.13325ZM97.7207 17.1744C97.7658 17.2202 97.8109 17.266 97.856 17.3117C102.862 22.3938 105.657 29.2155 105.657 36.4494C105.657 41.9434 104.079 47.1628 101.103 51.6038C105.793 46.6134 108.363 40.1121 108.363 33.2445C108.363 26.148 105.657 19.4636 100.697 14.4274C100.697 14.4274 100.652 14.3816 100.562 14.3358L100.381 14.1527C95.5111 9.20801 88.9272 6.41519 81.9375 6.41519C75.1282 6.41519 68.7247 9.02487 63.8544 13.7864C68.2286 10.7647 73.3695 9.16222 78.7358 9.16222C78.7358 9.16222 78.7358 9.16222 78.7809 9.16222C85.9059 9.16222 92.625 12.0008 97.6305 17.0828L97.7207 17.1744ZM53.7081 15.572C53.9336 15.8009 54.159 16.0298 54.3845 16.2587L55.2864 17.1286C55.9177 17.7696 56.7745 18.0443 57.5862 18.0901C58.443 18.0901 59.2548 17.7238 59.8861 17.1286C60.337 16.6708 60.8331 16.2129 61.3291 15.7551C60.2017 16.3503 58.9842 16.625 57.7215 16.625C56.2785 16.5792 54.9256 16.2129 53.7081 15.572Z" fill="white"/>
<path d="M88.3861 32.4662H87.1234C84.1922 32.4204 81.8473 29.9939 81.8473 27.0179C81.8473 20.1046 79.0965 13.8322 74.6321 9.25379C70.1677 4.72119 63.9897 1.8826 57.1353 1.8826C57.0902 1.8826 57.0451 1.8826 57 1.8826C56.9549 1.8826 56.9098 1.8826 56.8647 1.8826C50.0554 1.8826 43.8774 4.72119 39.3679 9.25379C34.9035 13.7864 32.1527 20.0588 32.1527 27.0179C32.1527 28.483 31.5665 29.8565 30.6195 30.818C29.6725 31.7794 28.3647 32.4204 26.8766 32.4204H25.6139C11.4541 32.4662 0 44.0953 0 58.4714V58.5172C0 65.7053 2.88608 72.2066 7.48576 76.9223C12.1305 81.638 18.534 84.5224 25.6139 84.5224L26.8766 84.5682C29.8078 84.614 32.1527 87.0405 32.1527 90.0165C32.1527 96.9298 34.9035 103.202 39.3679 107.781C43.8323 112.313 50.0103 115.106 56.8647 115.106H57.1353C63.9446 115.106 70.1226 112.313 74.6321 107.781C79.0965 103.248 81.8473 96.9756 81.8473 90.0165C81.8473 88.5056 82.4335 87.1779 83.3805 86.2164C84.3275 85.2549 85.6353 84.614 87.1234 84.614L88.3861 84.5682C102.501 84.5682 114 72.9391 114 58.563V58.5172C114 44.0953 102.546 32.4662 88.3861 32.4662ZM106.74 58.4714C106.74 71.0162 96.7286 81.1802 84.4177 81.1802H83.2903C82.0277 81.226 80.8552 81.7296 80.0435 82.5995C79.1867 83.4694 78.6907 84.614 78.6907 85.9417C78.6907 91.9852 76.3006 97.4334 72.3774 101.417C68.4992 105.354 63.0878 107.826 57.1353 107.826H56.9098C50.9573 107.826 45.5459 105.354 41.6677 101.417C37.7445 97.4792 35.3544 91.9852 35.3544 85.9417C35.3544 83.332 33.3252 81.226 30.7547 81.1802H29.6274C23.4494 81.1802 17.8576 78.6621 13.8441 74.5415C9.7856 70.421 7.30538 64.7438 7.30538 58.5172V58.4714C7.30538 45.9266 17.3165 35.8084 29.6274 35.8084L30.7547 35.7626C32.0174 35.7168 33.1899 35.2132 34.0016 34.3433C34.8584 33.4734 35.3544 32.2831 35.3544 31.0011C35.3544 24.9576 37.7445 19.4636 41.6677 15.5262C45.5459 11.5888 50.9573 9.11644 56.9098 9.11644C56.9549 9.11644 57 9.11644 57.0451 9.11644C57.0902 9.11644 57.1353 9.11644 57.1804 9.11644C63.1329 9.11644 68.5443 11.5888 72.4225 15.5262C76.3457 19.4636 78.7358 24.9576 78.7358 31.0011C78.7358 33.6108 80.765 35.7168 83.3354 35.7626L84.4628 35.8084C96.7286 35.8084 106.74 45.9266 106.74 58.4714Z" fill="#036FF1"/>
<path d="M106.74 58.4714C106.74 71.062 96.7287 81.1802 84.4178 81.1802H83.2904C82.0277 81.226 80.8553 81.7296 80.0435 82.5995C79.1867 83.4694 78.6907 84.614 78.6907 85.9417C78.6907 91.9852 76.3007 97.4334 72.3774 101.417C68.4992 105.354 63.0878 107.826 57.1353 107.826H56.9098C50.9573 107.826 45.5459 105.354 41.6678 101.417C37.7445 97.4792 35.3545 91.9852 35.3545 85.9417C35.3545 83.332 33.3252 81.226 30.7548 81.1802H29.6274C23.4494 81.1802 17.8576 78.6621 13.8442 74.5415C9.78564 70.421 7.30542 64.7438 7.30542 58.5172V58.4714C7.30542 45.9266 17.3165 35.8084 29.6274 35.8084L30.7548 35.7626C32.0174 35.7168 33.1899 35.2132 34.0016 34.3433C34.8584 33.4734 35.3545 32.2831 35.3545 31.0011C35.3545 24.9576 37.7445 19.4636 41.6678 15.5262C45.5459 11.5888 50.9573 9.11644 56.9098 9.11644C56.9549 9.11644 57 9.11644 57.0451 9.11644C57.0902 9.11644 57.1353 9.11644 57.1804 9.11644C63.1329 9.11644 68.5443 11.5888 72.4225 15.5262C76.3458 19.4636 78.7358 24.9576 78.7358 31.0011C78.7358 33.6108 80.7651 35.7168 83.3355 35.7626L84.4629 35.8084C96.7287 35.8084 106.74 45.9266 106.74 58.4714Z" fill="white"/>
<path d="M57.1353 108.147H56.9098C51.0475 108.147 45.591 105.858 41.4423 101.646C37.2935 97.4792 35.0388 91.8936 35.0388 85.9417C35.0388 83.5609 33.0997 81.5465 30.7548 81.5007H29.6274C23.5847 81.5007 17.9027 79.1199 13.6187 74.7704C9.33468 70.421 6.98975 64.6522 6.98975 58.5172C6.98975 45.7893 17.1361 35.4879 29.6274 35.4879L30.7097 35.4421C31.8822 35.4421 32.9644 34.9385 33.731 34.1144C34.5428 33.2903 34.9937 32.1915 34.9937 31.0011C34.9937 25.0492 37.2485 19.4636 41.3972 15.2973C45.5459 11.0851 51.0475 8.79596 56.8647 8.79596H56.9549C57.0451 8.79596 57.0902 8.79596 57.0902 8.79596C62.9075 8.79596 68.409 11.0851 72.5578 15.2973C76.7065 19.4636 78.9613 25.0492 78.9613 31.0011C78.9613 33.3819 80.9004 35.3964 83.2453 35.4421L84.3727 35.4879C96.864 35.4879 107.01 45.7893 107.01 58.4714C107.01 71.1993 96.864 81.5007 84.3727 81.5007H83.2904C82.1179 81.5007 81.0807 82.0043 80.269 82.8284C79.4573 83.6525 79.0064 84.7513 79.0064 85.9417C79.0064 91.8936 76.7516 97.4334 72.6029 101.646C68.4541 105.858 62.9526 108.147 57.1353 108.147ZM56.9098 9.43693C51.2279 9.43693 45.9067 11.6803 41.8932 15.7551C37.8347 19.8299 35.625 25.2323 35.625 31.0011C35.625 32.3288 35.129 33.6108 34.182 34.5723C33.2801 35.5337 32.0174 36.0373 30.7097 36.0831L29.5823 36.1289C17.4518 36.1289 7.53089 46.1556 7.53089 58.4714C7.53089 64.4691 9.83073 70.1005 13.9795 74.3126C18.1282 78.5247 23.6749 80.8597 29.5372 80.8597H30.6646C33.3703 80.9055 35.5799 83.1947 35.5799 85.9417C35.5799 91.7105 37.7896 97.1129 41.803 101.188C45.8165 105.262 51.1377 107.506 56.8197 107.506H57.0451C62.7271 107.506 68.0483 105.262 72.0617 101.188C76.0752 97.1129 78.2848 91.7105 78.2848 85.9417C78.2848 84.614 78.7809 83.332 79.7279 82.3706C80.6298 81.4091 81.8924 80.8597 83.2002 80.8597H84.3276C96.4581 80.8597 106.379 70.833 106.379 58.5172V58.4714C106.379 46.1556 96.5032 36.1289 84.3727 36.1289L83.2453 36.0831C80.5396 36.0373 78.3299 33.7481 78.3299 31.0469C78.3299 25.2781 76.1203 19.8756 72.1068 15.8009C68.0934 11.7261 62.7722 9.48271 57.0902 9.48271C57.0451 9.48271 57 9.48271 56.9549 9.48271L56.9098 9.43693Z" fill="#0062D8"/>
<path d="M110.798 58.4714C110.798 71.062 99.9755 81.1802 86.6274 81.1802H85.4098C84.057 81.226 82.7943 81.7296 81.8924 82.5995C80.9905 83.4694 80.4494 84.614 80.4494 85.9417C80.4494 91.9852 77.8339 97.4334 73.595 101.417C69.356 105.354 63.5388 107.826 57.0902 107.826H56.8196C50.3711 107.826 44.5538 105.354 40.3149 101.417C36.076 97.4792 33.4605 91.9852 33.4605 85.9417C33.4605 83.332 31.2508 81.226 28.5 81.1802H27.2825C20.6084 81.1802 14.5657 78.6621 10.1915 74.5415C5.81727 70.421 3.11157 64.7438 3.11157 58.5172V58.4714C3.11157 45.9266 13.9344 35.8084 27.2825 35.8084L28.5 35.7626C29.8529 35.7168 31.1155 35.2132 32.0174 34.3433C32.9193 33.4734 33.4605 32.2831 33.4605 31.0011C33.4605 24.9576 36.076 19.4636 40.3149 15.5262C44.5538 11.5888 50.3711 9.11644 56.8196 9.11644C56.8647 9.11644 56.9098 9.11644 56.9549 9.11644C57 9.11644 57.0451 9.11644 57.0902 9.11644C63.5388 9.11644 69.356 11.5888 73.595 15.5262C77.8339 19.4636 80.4494 24.9576 80.4494 31.0011C80.4494 33.6108 82.659 35.7168 85.4098 35.7626L86.6274 35.8084C99.9755 35.8084 110.798 45.9266 110.798 58.4714Z" fill="white"/>
<path d="M57.1353 108.147H56.8647C50.5515 108.147 44.644 105.858 40.1796 101.646C35.7152 97.4792 33.235 91.8936 33.235 85.9417C33.235 83.5152 31.1155 81.5465 28.5451 81.4549H27.3276C20.7888 81.4549 14.6559 79.0741 10.0562 74.7247C5.45652 70.3752 2.88611 64.6064 2.88611 58.4714C2.88611 45.7435 13.8442 35.4421 27.3276 35.4421L28.5 35.3964C29.7627 35.3964 30.9352 34.8927 31.8371 34.0686C32.739 33.2445 33.1899 32.1457 33.1899 30.9553C33.1899 25.0034 35.6701 19.4636 40.1345 15.2515C44.5989 11.0851 50.5064 8.75017 56.8197 8.75017H56.9098L56.9549 9.02487L57 8.75017C57.0451 8.75017 57.0451 8.75017 57.0902 8.75017C63.4035 8.75017 69.311 11.0394 73.7754 15.2515C78.2398 19.4178 80.72 25.0034 80.72 30.9553C80.72 33.3819 82.8394 35.3506 85.4099 35.3964L86.6274 35.4421C100.111 35.4421 111.069 45.7435 111.069 58.4256C111.069 71.1077 100.111 81.4091 86.6274 81.4091H85.4549C84.1923 81.4549 83.0198 81.9127 82.1179 82.7368C81.216 83.561 80.7651 84.6598 80.7651 85.8501C80.7651 91.802 78.2849 97.3419 73.8204 101.554C69.356 105.812 63.4486 108.147 57.1353 108.147ZM56.9098 9.39115C50.7318 9.39115 44.9597 11.6346 40.5855 15.7093C36.2113 19.8299 33.8212 25.2323 33.8212 31.0011C33.8212 32.3288 33.2801 33.6108 32.288 34.5265C31.2959 35.4421 29.9882 35.9915 28.5902 36.0373L27.3727 36.0831C14.2049 36.0831 3.47234 46.1098 3.47234 58.4714C3.47234 64.5149 5.95257 70.1005 10.4621 74.3584C14.9716 78.5705 20.9692 80.9055 27.3727 80.9055H28.5902C31.4763 80.9513 33.8212 83.2405 33.8212 85.9417C33.8212 91.7105 36.2113 97.113 40.5855 101.188C44.9597 105.262 50.7318 107.506 56.9098 107.506H57.1804C63.3584 107.506 69.1306 105.262 73.4597 101.188C77.7888 97.113 80.2239 91.7105 80.2239 85.9417C80.2239 84.614 80.7651 83.332 81.7572 82.4163C82.7493 81.4549 84.057 80.9513 85.4549 80.9055H86.6725C99.8402 80.9055 110.573 70.8788 110.573 58.5172V58.4714C110.573 46.1098 99.8402 36.0831 86.6725 36.0831L85.4549 36.0373C82.5689 35.9915 80.2239 33.7481 80.2239 31.0011C80.2239 25.2323 77.8339 19.7841 73.4597 15.7093C69.0855 11.6346 63.3133 9.39115 57.1804 9.39115C57.0902 9.39115 57.0902 9.39115 57.0451 9.39115H56.9098Z" fill="#0062D8"/>
<path d="M65.0269 51.8785C65.9288 50.7797 67.2366 50.093 68.6796 50.1845C68.7247 50.1845 68.7698 50.1845 68.8149 50.1845H79.322C82.7041 50.1845 85.4098 52.9773 85.4098 56.3653V62.5462C85.4098 65.98 82.7041 68.727 79.322 68.727H68.8149C67.3268 68.727 66.1543 69.9631 66.1543 71.4282V82.0959C66.1543 85.5296 63.4486 88.2767 60.0665 88.2767H53.9787C50.5965 88.2767 47.8908 85.5296 47.8908 82.0959V71.4282C47.8908 69.9174 46.6733 68.6812 45.1851 68.6812H34.678C31.2959 68.6812 28.5902 65.9342 28.5902 62.5004V56.3653C28.5902 52.9316 31.341 50.1845 34.678 50.1845H45.14C45.3204 50.1845 45.4557 50.1845 45.6361 50.1387C47.1242 49.864 48.5673 50.5508 49.4692 51.7412C51.1377 53.893 53.7081 55.3123 56.6393 55.3123H57.947C60.8331 55.2665 63.3584 53.9388 65.0269 51.8785Z" fill="#036FF1"/>
<path d="M52.265 48.3074C52.4905 48.3074 52.7611 48.3532 52.9866 48.399C52.7611 46.9797 51.9945 45.8351 50.6416 45.0567C49.1084 44.1869 47.5752 44.1869 46.087 45.1025C44.9597 45.7893 44.3283 46.8423 43.8774 48.0785C43.6068 48.811 43.4715 49.5893 43.2911 50.3677C42.8853 52.199 42.4794 54.0304 42.0736 55.8617C41.9834 56.1822 42.2089 56.1822 42.4343 56.2738C42.6598 56.3196 42.75 56.2738 42.7951 56.0449C43.2461 54.0304 43.697 52.0617 44.1029 50.0472C44.3283 48.9484 44.644 47.8038 45.2753 46.8881C46.0419 45.7893 47.0791 45.1483 48.432 45.1483C50.2358 45.1483 51.8592 46.5218 52.265 48.3074Z" fill="white"/>
<path d="M75.3085 47.2086C75.7594 47.2086 75.8947 47.3459 75.9849 47.758C76.0751 48.2616 76.1202 48.811 76.1653 49.3146C76.1653 49.5436 76.2555 49.6351 76.4809 49.7267C77.473 50.0472 78.2847 50.6424 78.8259 51.5581C79.0062 51.8785 79.0062 52.0159 78.6906 52.199C78.2396 52.4737 78.1494 52.4737 77.8789 52.0159C77.4279 51.3291 76.7515 51.0544 75.9849 50.8713C75.2634 50.7339 74.5418 50.8255 73.8654 51.1002C73.3694 51.2833 73.0086 51.6496 72.7381 52.1075C72.6028 52.3822 72.4675 52.4279 72.1969 52.2906C72.1067 52.2448 72.0165 52.1532 71.8812 52.1075C71.7009 51.9701 71.7009 51.8328 71.7911 51.6038C72.2871 50.5966 73.1439 50.0014 74.136 49.6809C74.3615 49.5893 74.4517 49.4978 74.4517 49.2689C74.4968 48.7652 74.4967 48.2616 74.5869 47.758C74.632 47.3459 74.8124 47.2086 75.3085 47.2086Z" fill="white"/>
<path d="M81.4414 61.0811C81.4414 61.7678 81.3512 62.2715 81.2159 62.8209C80.9453 63.8281 80.1336 64.4691 79.1415 64.4691C78.9611 64.4691 78.7808 64.4691 78.6004 64.4691C78.3298 64.4691 78.2396 64.3317 78.2396 64.1028C78.2396 63.8739 78.2847 63.6908 78.5553 63.6908C78.7357 63.6908 78.9611 63.6908 79.1415 63.6908C79.7729 63.6908 80.1787 63.3703 80.4042 62.8209C80.7198 62.1341 80.7198 61.4016 80.6747 60.669C80.4042 57.9678 79.5474 55.4497 78.5102 53.0231C78.4651 52.9316 78.3298 52.7942 78.4651 52.7026C78.6004 52.5653 78.7808 52.4737 78.9611 52.4279C79.0513 52.4279 79.0964 52.5195 79.0964 52.6111C80.1787 55.0834 81.0355 57.6015 81.3512 60.3028C81.3963 60.5317 81.3963 60.8522 81.4414 61.0811Z" fill="white"/>
<path d="M69.1305 61.1269C69.1756 59.616 69.4913 58.1509 69.8971 56.7316C70.2579 55.4039 70.7539 54.0762 71.2951 52.7942C71.3401 52.7026 71.3852 52.5653 71.4303 52.4737C71.4754 52.3822 71.5656 52.3364 71.6558 52.4279C71.746 52.4737 71.7911 52.5195 71.8813 52.5653C72.1068 52.6569 72.1068 52.7942 72.0166 52.9773C71.7911 53.481 71.5656 53.9846 71.3852 54.534C70.799 56.0449 70.303 57.6015 70.0324 59.2497C69.852 60.257 69.7618 61.2642 69.9422 62.2715C69.9873 62.5919 70.0775 62.9124 70.303 63.1871C70.5284 63.5076 70.8441 63.6908 71.2951 63.7366C71.5205 63.7366 71.7009 63.7366 71.9264 63.7366C72.1969 63.7366 72.3322 63.8281 72.2871 64.1028C72.2871 64.4691 72.2871 64.4691 71.8813 64.5149C71.1147 64.5607 70.3931 64.4233 69.852 63.7823C69.5363 63.4161 69.356 62.9582 69.2658 62.4546C69.1756 61.9968 69.1305 61.5847 69.1305 61.1269Z" fill="white"/>
<path d="M78.0142 64.057C78.0142 64.1028 78.0142 64.1028 78.0142 64.057C78.0142 65.0185 77.9691 65.0185 77.0672 64.9727C76.7967 64.9727 76.6614 64.8354 76.6614 64.5606C76.6614 64.1944 76.6614 63.8281 76.6614 63.5076C76.6614 63.4618 76.6614 63.4161 76.6614 63.3703C76.7516 63.0498 77.0221 63.0956 77.6535 63.0956C77.924 63.0956 78.0142 63.2787 78.0142 63.5076C78.0142 63.7365 78.0142 63.9197 78.0142 64.057Z" fill="white"/>
<path d="M72.5577 64.057C72.5577 63.9655 72.5577 63.8739 72.5577 63.7366C72.5577 63.1414 72.6479 63.0956 73.1891 63.0956C73.2793 63.0956 73.3695 63.0956 73.5047 63.0956C73.7753 63.0956 73.9106 63.2329 73.9106 63.5076C73.9106 63.8739 73.9106 64.2402 73.9106 64.5607C73.9106 64.8354 73.7302 64.9269 73.5047 64.9727C72.6028 65.0643 72.5577 65.0185 72.5577 64.057Z" fill="white"/>
<path d="M41.6677 56.4111C43.2911 56.4111 44.5087 57.6931 44.5087 59.3413C44.5087 60.9437 43.2009 62.3172 41.6677 62.3172C40.0894 62.3172 38.7816 60.9895 38.7816 59.3871C38.8267 57.6931 40.0894 56.4111 41.6677 56.4111ZM41.6677 61.5847C42.8853 61.5847 43.8773 60.5775 43.8773 59.2955C43.8773 58.0136 42.8853 57.0521 41.6677 57.0521C40.4501 57.0521 39.458 58.0594 39.458 59.3413C39.458 60.5775 40.4501 61.5847 41.6677 61.5847Z" fill="white"/>
<path d="M41.7129 60.5775C41.0364 60.5775 40.4502 59.9823 40.4502 59.2955C40.4502 58.6088 41.0364 58.0136 41.6678 58.0136C42.3442 58.0136 42.8853 58.563 42.8853 59.2955C42.9304 59.9823 42.3442 60.5775 41.7129 60.5775Z" fill="white"/>
<path d="M67.7777 39.288C67.7777 45.1483 63.0878 49.9098 57.3157 49.9098C51.5435 49.9098 46.8536 45.1483 46.8536 39.288C46.8536 33.4277 51.5435 28.6661 57.3157 28.6661C63.0878 28.7119 67.7777 33.4277 67.7777 39.288Z" fill="#37E9F2"/>
</svg>
