<svg width="402" height="116" viewBox="0 0 402 116" fill="none" xmlns="http://www.w3.org/2000/svg">
<path d="M153.032 81.768C149.448 81.768 146.013 81.2987 142.728 80.36C139.443 79.3787 136.797 78.12 134.792 76.584L138.312 68.776C140.232 70.1413 142.493 71.272 145.096 72.168C147.741 73.0213 150.408 73.448 153.096 73.448C155.144 73.448 156.787 73.256 158.024 72.872C159.304 72.4453 160.243 71.8693 160.84 71.144C161.437 70.4187 161.736 69.5867 161.736 68.648C161.736 67.4533 161.267 66.5147 160.328 65.832C159.389 65.1067 158.152 64.5307 156.616 64.104C155.08 63.6347 153.373 63.208 151.496 62.824C149.661 62.3973 147.805 61.8853 145.928 61.288C144.093 60.6907 142.408 59.9227 140.872 58.984C139.336 58.0453 138.077 56.808 137.096 55.272C136.157 53.736 135.688 51.7733 135.688 49.384C135.688 46.824 136.371 44.4987 137.736 42.408C139.144 40.2747 141.235 38.5893 144.008 37.352C146.824 36.072 150.344 35.432 154.568 35.432C157.384 35.432 160.157 35.7733 162.888 36.456C165.619 37.096 168.029 38.0773 170.12 39.4L166.92 47.272C164.829 46.0773 162.739 45.2027 160.648 44.648C158.557 44.0507 156.509 43.752 154.504 43.752C152.499 43.752 150.856 43.9867 149.576 44.456C148.296 44.9253 147.379 45.544 146.824 46.312C146.269 47.0373 145.992 47.8907 145.992 48.872C145.992 50.024 146.461 50.9627 147.4 51.688C148.339 52.3707 149.576 52.9253 151.112 53.352C152.648 53.7787 154.333 54.2053 156.168 54.632C158.045 55.0587 159.901 55.5493 161.736 56.104C163.613 56.6587 165.32 57.4053 166.856 58.344C168.392 59.2827 169.629 60.52 170.568 62.056C171.549 63.592 172.04 65.5333 172.04 67.88C172.04 70.3973 171.336 72.7013 169.928 74.792C168.52 76.8827 166.408 78.568 163.592 79.848C160.819 81.128 157.299 81.768 153.032 81.768ZM179.125 81V36.2H189.493V81H179.125ZM200.125 81V36.2H219.517C223.527 36.2 226.983 36.8613 229.885 38.184C232.786 39.464 235.026 41.32 236.605 43.752C238.183 46.184 238.973 49.0853 238.973 52.456C238.973 55.784 238.183 58.664 236.605 61.096C235.026 63.4853 232.786 65.32 229.885 66.6C226.983 67.88 223.527 68.52 219.517 68.52H205.885L210.493 63.976V81H200.125ZM228.604 81L217.405 64.744H228.477L239.805 81H228.604ZM210.493 65.128L205.885 60.264H218.941C222.141 60.264 224.53 59.5813 226.109 58.216C227.687 56.808 228.477 54.888 228.477 52.456C228.477 49.9813 227.687 48.0613 226.109 46.696C224.53 45.3307 222.141 44.648 218.941 44.648H205.885L210.493 39.72V65.128ZM247.187 81V36.2H266.579C270.59 36.2 274.046 36.8613 276.947 38.184C279.848 39.464 282.088 41.32 283.667 43.752C285.246 46.184 286.035 49.0853 286.035 52.456C286.035 55.784 285.246 58.664 283.667 61.096C282.088 63.4853 279.848 65.32 276.947 66.6C274.046 67.88 270.59 68.52 266.579 68.52H252.947L257.555 63.976V81H247.187ZM275.667 81L264.467 64.744H275.539L286.867 81H275.667ZM257.555 65.128L252.947 60.264H266.003C269.203 60.264 271.592 59.5813 273.171 58.216C274.75 56.808 275.539 54.888 275.539 52.456C275.539 49.9813 274.75 48.0613 273.171 46.696C271.592 45.3307 269.203 44.648 266.003 44.648H252.947L257.555 39.72V65.128ZM294.25 81V36.2H304.618V81H294.25ZM335.154 81.768C328.796 81.768 323.826 79.9973 320.242 76.456C316.658 72.9147 314.866 67.8587 314.866 61.288V36.2H325.234V60.904C325.234 65.1707 326.108 68.2427 327.858 70.12C329.607 71.9973 332.06 72.936 335.218 72.936C338.375 72.936 340.828 71.9973 342.578 70.12C344.327 68.2427 345.201 65.1707 345.201 60.904V36.2H355.442V61.288C355.442 67.8587 353.65 72.9147 350.066 76.456C346.482 79.9973 341.511 81.768 335.154 81.768ZM380.407 81.768C376.823 81.768 373.388 81.2987 370.103 80.36C366.818 79.3787 364.172 78.12 362.167 76.584L365.687 68.776C367.607 70.1413 369.868 71.272 372.471 72.168C375.116 73.0213 377.783 73.448 380.471 73.448C382.519 73.448 384.162 73.256 385.399 72.872C386.679 72.4453 387.618 71.8693 388.215 71.144C388.812 70.4187 389.111 69.5867 389.111 68.648C389.111 67.4533 388.642 66.5147 387.703 65.832C386.764 65.1067 385.527 64.5307 383.991 64.104C382.455 63.6347 380.748 63.208 378.871 62.824C377.036 62.3973 375.18 61.8853 373.303 61.288C371.468 60.6907 369.783 59.9227 368.247 58.984C366.711 58.0453 365.452 56.808 364.471 55.272C363.532 53.736 363.063 51.7733 363.063 49.384C363.063 46.824 363.746 44.4987 365.111 42.408C366.519 40.2747 368.61 38.5893 371.383 37.352C374.199 36.072 377.719 35.432 381.943 35.432C384.759 35.432 387.532 35.7733 390.263 36.456C392.994 37.096 395.404 38.0773 397.495 39.4L394.295 47.272C392.204 46.0773 390.114 45.2027 388.023 44.648C385.932 44.0507 383.884 43.752 381.879 43.752C379.874 43.752 378.231 43.9867 376.951 44.456C375.671 44.9253 374.754 45.544 374.199 46.312C373.644 47.0373 373.367 47.8907 373.367 48.872C373.367 50.024 373.836 50.9627 374.775 51.688C375.714 52.3707 376.951 52.9253 378.487 53.352C380.023 53.7787 381.708 54.2053 383.543 54.632C385.42 55.0587 387.276 55.5493 389.111 56.104C390.988 56.6587 392.695 57.4053 394.231 58.344C395.767 59.2827 397.004 60.52 397.943 62.056C398.924 63.592 399.415 65.5333 399.415 67.88C399.415 70.3973 398.711 72.7013 397.303 74.792C395.895 76.8827 393.783 78.568 390.967 79.848C388.194 81.128 384.674 81.768 380.407 81.768Z" fill="#036FF1"/>
<path d="M103.042 62.2546L102.005 61.2016C99.7049 58.775 99.7049 54.8834 102.095 52.5026C107.597 46.917 110.347 39.5916 110.347 32.2204C110.347 24.895 107.597 17.5238 102.095 11.9382C102.05 11.8924 102.005 11.8924 101.96 11.8466C101.915 11.8008 101.915 11.755 101.869 11.7093C96.3679 6.12362 89.1076 3.33081 81.8924 3.33081C74.6773 3.33081 67.4621 6.12362 61.9154 11.7093C60.7429 12.8996 59.2097 13.4948 57.6314 13.5406C56.0981 13.5406 54.5198 12.9912 53.3473 11.8008L52.3102 10.7936C40.9011 -0.789733 22.3671 -0.789733 10.9581 10.7936L10.913 10.8394C5.18595 16.6539 2.34497 24.254 2.34497 31.8541C2.34497 39.4543 5.18595 47.0544 10.913 52.8689L11.9051 53.9219C14.25 56.3485 14.2049 60.2401 11.8149 62.6209C6.35842 68.1607 3.60763 75.4861 3.60763 82.8115C3.60763 90.137 6.35842 97.4624 11.86 103.094L12.0855 103.323C17.6322 108.908 24.8473 111.701 32.0625 111.701C39.2777 111.701 46.4929 108.908 52.0396 103.323C53.2121 102.132 54.7904 101.537 56.3236 101.491C57.8568 101.491 59.4352 102.041 60.6076 103.231L61.6448 104.238C73.0538 115.822 91.5879 115.822 102.997 104.238L103.042 104.193C114.496 92.6093 114.496 73.8379 103.042 62.2546ZM97.1796 98.2865C87.2136 108.405 71.0246 108.405 61.0586 98.2865L60.1567 97.3708C59.1195 96.3636 57.7666 95.8599 56.4138 95.8599C55.061 95.8599 53.7081 96.4093 52.6709 97.4624C47.8458 102.361 41.5776 104.788 35.2643 104.788C28.951 104.788 22.6828 102.361 17.8576 97.4624L17.6772 97.2792C12.8521 92.3804 10.4621 85.9706 10.4621 79.6067C10.4621 73.1969 12.8521 66.7872 17.6772 61.9341C19.7516 59.8281 19.7516 56.4401 17.7223 54.334L16.8204 53.4183C11.8149 48.3363 9.33469 41.7434 9.33469 35.1048C9.33469 28.4661 11.8149 21.8275 16.8204 16.7913C26.7864 6.67303 42.9304 6.67303 52.8964 16.7913L53.7983 17.6611C54.8355 18.6684 56.1883 19.2178 57.5412 19.172C58.894 19.172 60.2469 18.6226 61.2841 17.5696C66.1092 12.6707 72.3774 10.2442 78.6907 10.2442C85.004 10.2442 91.3173 12.6707 96.0973 17.5696C96.1424 17.6154 96.1424 17.6154 96.1875 17.6611C96.2326 17.7069 96.2777 17.7069 96.2777 17.7527C101.103 22.6516 103.493 29.0155 103.493 35.4253C103.493 41.835 101.103 48.2447 96.2777 53.0978C94.2034 55.2039 94.2034 58.5919 96.2326 60.698L97.0894 61.6136C107.146 71.7319 107.146 88.1225 97.1796 98.2865Z" fill="#024AB5"/>
<path d="M82.2983 115.043C74.2714 115.043 66.2896 111.93 60.2017 105.749L59.1646 104.742C58.3979 104.009 57.4059 103.597 56.3236 103.597H56.2785C55.1962 103.597 54.2041 104.055 53.4375 104.788C47.7105 110.602 40.0894 113.807 32.0174 113.807C23.9454 113.807 16.3244 110.602 10.5973 104.788L10.3718 104.559C4.64479 98.7443 1.48814 91.0526 1.48814 82.8115C1.48814 74.6162 4.64479 66.8788 10.3718 61.0642C11.9502 59.4618 11.9502 56.8979 10.4169 55.2497L9.42485 54.1966C3.6076 48.2447 0.315674 40.2784 0.315674 31.8083C0.315674 23.2926 3.56251 15.3262 9.46995 9.32849C21.6907 -3.07893 41.5775 -3.12471 53.7532 9.2827L54.7904 10.2899C55.557 11.0225 56.5491 11.4345 57.5862 11.4345H57.6313C58.7136 11.4345 59.7057 10.9767 60.4723 10.2442C66.1994 4.42962 73.7753 1.22475 81.8924 1.22475C89.9644 1.22475 97.5855 4.42962 103.313 10.2442L103.403 10.3815C103.448 10.4273 103.493 10.4731 103.538 10.4731C109.265 16.2876 112.422 23.9793 112.422 32.2204C112.422 40.4157 109.265 48.1532 103.538 53.9677C101.96 55.5702 101.96 58.1341 103.493 59.7823L104.485 60.8353C116.661 73.2427 116.661 93.3876 104.485 105.749C98.3972 111.93 90.3252 115.043 82.2983 115.043ZM63.0427 102.727C73.7302 113.578 90.9565 113.578 101.554 102.773C112.196 91.9683 112.196 74.4331 101.599 63.6739L101.509 63.5823C104.846 68.2981 106.695 73.9753 106.695 79.9272C106.695 87.3899 103.809 94.4406 98.6226 99.7058L98.5324 99.7973C93.3465 105.062 86.447 107.947 79.0965 107.947C73.2793 107.947 67.6875 106.115 63.0427 102.727ZM12.9423 64.4522C8.25238 69.4427 5.68197 75.944 5.68197 82.8573C5.68197 89.9538 8.38767 96.6382 13.3481 101.629L13.5736 101.858C18.534 106.894 25.1179 109.641 32.0625 109.641C38.8718 109.641 45.2753 107.031 50.1907 102.27C45.8165 105.291 40.6756 106.894 35.3093 106.894C35.3093 106.894 35.3093 106.894 35.2642 106.894C28.1392 106.894 21.4201 104.101 16.4146 98.9732L16.2342 98.7901C11.1836 93.6623 8.43276 86.8863 8.43276 79.6524C8.38767 74.1126 9.96599 68.8932 12.9423 64.4522ZM56.4589 93.7996C58.3529 93.7996 60.2017 94.5322 61.5546 95.9057L62.4565 96.8214C71.6108 106.116 86.4921 106.116 95.6464 96.8214L95.7366 96.7298C104.846 87.4357 104.846 72.3728 95.6915 63.0787L94.7896 62.1172C91.9937 59.1871 92.0388 54.4713 94.8797 51.587C99.1638 47.2375 101.509 41.5145 101.509 35.3795C101.509 29.2902 99.1638 23.5215 94.9248 19.2178C94.8798 19.172 94.8347 19.1262 94.7896 19.0804L94.6543 18.9431C90.3703 14.6394 84.7334 12.3044 78.7358 12.3044C72.693 12.3044 67.0562 14.6852 62.7722 19.0347C61.3742 20.454 59.5704 21.2323 57.5862 21.2323C57.5411 21.2323 57.5411 21.2323 57.4961 21.2323C55.6021 21.2323 53.7983 20.4997 52.4003 19.1262L51.4984 18.2563C42.2991 8.91643 27.4177 8.91643 18.2635 18.2106L18.1733 18.3021C13.754 22.8347 11.3188 28.7866 11.3188 35.1048C11.3188 41.4687 13.754 47.4664 18.2184 51.9532L19.1203 52.9147C21.9161 55.8449 21.8711 60.5606 19.0301 63.445C14.7461 67.7944 12.4011 73.5174 12.4011 79.6524C12.4011 85.7875 14.7461 91.5562 19.0301 95.8599L19.2105 96.0431C23.4494 100.347 29.1313 102.773 35.1741 102.773C41.2168 102.773 46.8536 100.393 51.1377 96.0431C52.5356 94.6238 54.3394 93.8454 56.3236 93.8454C56.4138 93.7997 56.4138 93.7996 56.4589 93.7996ZM56.3687 99.4311C57.7666 99.4311 59.1195 99.7973 60.2919 100.438C60.0665 100.209 59.841 99.9805 59.6155 99.7515L58.7136 98.8817C58.0823 98.2865 57.2706 97.966 56.4138 97.966C55.557 97.966 54.7453 98.3323 54.1139 98.9274C53.663 99.3853 53.1669 99.8431 52.6709 100.301C53.7983 99.7516 55.0158 99.4311 56.2785 99.4311C56.3236 99.4311 56.3236 99.4311 56.3687 99.4311ZM14.701 54.1509C16.0087 56.5774 16.0538 59.5076 14.8362 61.9341C15.2872 61.4305 15.7381 60.9269 16.1891 60.4232C17.4517 59.1413 17.4517 57.0352 16.2342 55.7533L15.3774 54.8376C15.1519 54.6087 14.9264 54.3798 14.701 54.1509ZM99.1638 53.0978C98.7128 53.6014 98.2619 54.1051 97.8109 54.6087C96.5483 55.8906 96.5483 57.9967 97.7658 59.2786L98.6677 60.1943C98.8932 60.4232 99.1187 60.6522 99.2991 60.8811C97.9913 58.4545 97.9462 55.5244 99.1638 53.0978ZM31.6567 4.15491C24.712 4.15491 17.7223 6.85616 12.4462 12.2129C7.26029 17.478 4.41931 24.3914 4.41931 31.8083C4.41931 39.1795 7.26029 46.1387 12.4011 51.3123L12.4462 51.358C9.10919 46.6423 7.30539 41.0109 7.30539 35.059C7.30539 27.5962 10.1915 20.5455 15.3774 15.2804L15.4676 15.1888C20.6535 9.92368 27.553 7.0393 34.9035 7.0393C40.7658 7.0393 46.3576 8.87065 51.0024 12.3044L50.9122 12.2129C45.591 6.85616 38.6464 4.15491 31.6567 4.15491ZM97.7207 16.1961C97.7658 16.2418 97.8109 16.2876 97.856 16.3334C102.862 21.4154 105.657 28.2372 105.657 35.4711C105.657 40.9651 104.079 46.1845 101.103 50.6255C105.793 45.6351 108.363 39.1338 108.363 32.2662C108.363 25.1697 105.657 18.4853 100.697 13.449C100.697 13.449 100.652 13.4032 100.562 13.3575L100.381 13.1743C95.5111 8.22968 88.9272 5.43686 81.9375 5.43686C75.1282 5.43686 68.7247 8.04654 63.8544 12.8081C68.2286 9.78633 73.3695 8.18389 78.7358 8.18389C78.7358 8.18389 78.7358 8.18389 78.7809 8.18389C85.9059 8.18389 92.625 11.0225 97.6305 16.1045L97.7207 16.1961ZM53.7081 14.5936C53.9336 14.8225 54.159 15.0515 54.3845 15.2804L55.2864 16.1503C55.9177 16.7913 56.7745 17.066 57.5862 17.1117C58.443 17.1117 59.2548 16.7455 59.8861 16.1503C60.337 15.6924 60.8331 15.2346 61.3291 14.7768C60.2017 15.372 58.9842 15.6467 57.7215 15.6467C56.2785 15.6009 54.9256 15.2346 53.7081 14.5936Z" fill="white"/>
<path d="M88.3861 31.4879H87.1234C84.1922 31.4421 81.8473 29.0155 81.8473 26.0396C81.8473 19.1262 79.0965 12.8538 74.6321 8.27546C70.1677 3.74286 63.9897 0.904266 57.1353 0.904266C57.0902 0.904266 57.0451 0.904266 57 0.904266C56.9549 0.904266 56.9098 0.904266 56.8647 0.904266C50.0554 0.904266 43.8774 3.74286 39.3679 8.27546C34.9035 12.8081 32.1527 19.0804 32.1527 26.0396C32.1527 27.5047 31.5665 28.8782 30.6195 29.8396C29.6725 30.8011 28.3647 31.4421 26.8766 31.4421H25.6139C11.4541 31.4879 0 43.117 0 57.4931V57.5389C0 64.7269 2.88608 71.2282 7.48576 75.944C12.1305 80.6597 18.534 83.5441 25.6139 83.5441L26.8766 83.5899C29.8078 83.6356 32.1527 86.0622 32.1527 89.0381C32.1527 95.9515 34.9035 102.224 39.3679 106.802C43.8323 111.335 50.0103 114.128 56.8647 114.128H57.1353C63.9446 114.128 70.1226 111.335 74.6321 106.802C79.0965 102.27 81.8473 95.9973 81.8473 89.0381C81.8473 87.5273 82.4335 86.1995 83.3805 85.2381C84.3275 84.2766 85.6353 83.6356 87.1234 83.6356L88.3861 83.5899C102.501 83.5899 114 71.9608 114 57.5846V57.5389C114 43.117 102.546 31.4879 88.3861 31.4879ZM106.74 57.4931C106.74 70.0378 96.7286 80.2019 84.4177 80.2019H83.2903C82.0277 80.2476 80.8552 80.7513 80.0435 81.6212C79.1867 82.4911 78.6907 83.6356 78.6907 84.9634C78.6907 91.0068 76.3006 96.4551 72.3774 100.438C68.4992 104.376 63.0878 106.848 57.1353 106.848H56.9098C50.9573 106.848 45.5459 104.376 41.6677 100.438C37.7445 96.5009 35.3544 91.0068 35.3544 84.9634C35.3544 82.3537 33.3252 80.2476 30.7547 80.2019H29.6274C23.4494 80.2019 17.8576 77.6837 13.8441 73.5632C9.7856 69.4427 7.30538 63.7655 7.30538 57.5389V57.4931C7.30538 44.9483 17.3165 34.8301 29.6274 34.8301L30.7547 34.7843C32.0174 34.7385 33.1899 34.2349 34.0016 33.365C34.8584 32.4951 35.3544 31.3047 35.3544 30.0228C35.3544 23.9793 37.7445 18.4853 41.6677 14.5478C45.5459 10.6104 50.9573 8.13811 56.9098 8.13811C56.9549 8.13811 57 8.13811 57.0451 8.13811C57.0902 8.13811 57.1353 8.13811 57.1804 8.13811C63.1329 8.13811 68.5443 10.6104 72.4225 14.5478C76.3457 18.4853 78.7358 23.9793 78.7358 30.0228C78.7358 32.6325 80.765 34.7385 83.3354 34.7843L84.4628 34.8301C96.7286 34.8301 106.74 44.9483 106.74 57.4931Z" fill="#036FF1"/>
<path d="M106.74 57.4931C106.74 70.0836 96.7287 80.2019 84.4178 80.2019H83.2904C82.0277 80.2476 80.8553 80.7513 80.0435 81.6212C79.1867 82.491 78.6907 83.6356 78.6907 84.9634C78.6907 91.0068 76.3007 96.4551 72.3774 100.438C68.4992 104.376 63.0878 106.848 57.1353 106.848H56.9098C50.9573 106.848 45.5459 104.376 41.6678 100.438C37.7445 96.5009 35.3545 91.0068 35.3545 84.9634C35.3545 82.3537 33.3252 80.2476 30.7548 80.2019H29.6274C23.4494 80.2019 17.8576 77.6837 13.8442 73.5632C9.78564 69.4427 7.30542 63.7655 7.30542 57.5389V57.4931C7.30542 44.9483 17.3165 34.8301 29.6274 34.8301L30.7548 34.7843C32.0174 34.7385 33.1899 34.2349 34.0016 33.365C34.8584 32.4951 35.3545 31.3047 35.3545 30.0228C35.3545 23.9793 37.7445 18.4853 41.6678 14.5478C45.5459 10.6104 50.9573 8.13811 56.9098 8.13811C56.9549 8.13811 57 8.13811 57.0451 8.13811C57.0902 8.13811 57.1353 8.13811 57.1804 8.13811C63.1329 8.13811 68.5443 10.6104 72.4225 14.5478C76.3458 18.4853 78.7358 23.9793 78.7358 30.0228C78.7358 32.6325 80.7651 34.7385 83.3355 34.7843L84.4628 34.8301C96.7287 34.8301 106.74 44.9483 106.74 57.4931Z" fill="white"/>
<path d="M57.1353 107.169H56.9098C51.0475 107.169 45.591 104.879 41.4423 100.667C37.2935 96.5009 35.0388 90.9153 35.0388 84.9634C35.0388 82.5826 33.0997 80.5681 30.7548 80.5223H29.6274C23.5847 80.5223 17.9027 78.1416 13.6187 73.7921C9.33468 69.4427 6.98975 63.6739 6.98975 57.5389C6.98975 44.811 17.1361 34.5096 29.6274 34.5096L30.7097 34.4638C31.8822 34.4638 32.9644 33.9602 33.731 33.1361C34.5428 32.312 34.9937 31.2132 34.9937 30.0228C34.9937 24.0709 37.2485 18.4853 41.3972 14.3189C45.5459 10.1068 51.0475 7.81763 56.8647 7.81763H56.9549C57.0451 7.81763 57.0902 7.81763 57.0902 7.81763C62.9075 7.81763 68.409 10.1068 72.5578 14.3189C76.7065 18.4853 78.9613 24.0709 78.9613 30.0228C78.9613 32.4035 80.9004 34.418 83.2453 34.4638L84.3727 34.5096C96.864 34.5096 107.01 44.811 107.01 57.4931C107.01 70.221 96.864 80.5223 84.3727 80.5223H83.2904C82.1179 80.5223 81.0807 81.026 80.269 81.8501C79.4573 82.6742 79.0064 83.773 79.0064 84.9634C79.0064 90.9153 76.7516 96.4551 72.6029 100.667C68.4541 104.879 62.9526 107.169 57.1353 107.169ZM56.9098 8.4586C51.2279 8.4586 45.9067 10.702 41.8932 14.7768C37.8347 18.8515 35.625 24.254 35.625 30.0228C35.625 31.3505 35.129 32.6325 34.182 33.5939C33.2801 34.5554 32.0174 35.059 30.7097 35.1048L29.5823 35.1506C17.4518 35.1506 7.53089 45.1772 7.53089 57.4931C7.53089 63.4908 9.83073 69.1222 13.9795 73.3343C18.1282 77.5464 23.6749 79.8814 29.5372 79.8814H30.6646C33.3703 79.9272 35.5799 82.2163 35.5799 84.9634C35.5799 90.7321 37.7896 96.1346 41.803 100.209C45.8165 104.284 51.1377 106.528 56.8197 106.528H57.0451C62.7271 106.528 68.0483 104.284 72.0617 100.209C76.0752 96.1346 78.2848 90.7321 78.2848 84.9634C78.2848 83.6356 78.7809 82.3537 79.7279 81.3922C80.6298 80.4308 81.8924 79.8814 83.2002 79.8814H84.3276C96.4581 79.8814 106.379 69.8547 106.379 57.5389V57.4931C106.379 45.1772 96.5032 35.1506 84.3727 35.1506L83.2453 35.1048C80.5396 35.059 78.3299 32.7698 78.3299 30.0686C78.3299 24.2998 76.1203 18.8973 72.1068 14.8226C68.0934 10.7478 62.7722 8.50438 57.0902 8.50438C57.0451 8.50438 57 8.50438 56.9549 8.50438L56.9098 8.4586Z" fill="#0062D8"/>
<path d="M110.798 57.4931C110.798 70.0836 99.9755 80.2019 86.6274 80.2019H85.4098C84.057 80.2476 82.7943 80.7513 81.8924 81.6212C80.9905 82.491 80.4494 83.6356 80.4494 84.9634C80.4494 91.0068 77.8339 96.4551 73.595 100.438C69.356 104.376 63.5388 106.848 57.0902 106.848H56.8196C50.3711 106.848 44.5538 104.376 40.3149 100.438C36.076 96.5009 33.4605 91.0068 33.4605 84.9634C33.4605 82.3537 31.2508 80.2476 28.5 80.2019H27.2825C20.6084 80.2019 14.5657 77.6837 10.1915 73.5632C5.81727 69.4427 3.11157 63.7655 3.11157 57.5389V57.4931C3.11157 44.9483 13.9344 34.8301 27.2825 34.8301L28.5 34.7843C29.8529 34.7385 31.1155 34.2349 32.0174 33.365C32.9193 32.4951 33.4605 31.3047 33.4605 30.0228C33.4605 23.9793 36.076 18.4853 40.3149 14.5478C44.5538 10.6104 50.3711 8.13811 56.8196 8.13811C56.8647 8.13811 56.9098 8.13811 56.9549 8.13811C57 8.13811 57.0451 8.13811 57.0902 8.13811C63.5388 8.13811 69.356 10.6104 73.595 14.5478C77.8339 18.4853 80.4494 23.9793 80.4494 30.0228C80.4494 32.6325 82.659 34.7385 85.4098 34.7843L86.6274 34.8301C99.9755 34.8301 110.798 44.9483 110.798 57.4931Z" fill="white"/>
<path d="M57.1352 107.169H56.8646C50.5513 107.169 44.6439 104.879 40.1795 100.667C35.7151 96.5009 33.2349 90.9153 33.2349 84.9634C33.2349 82.5368 31.1154 80.5681 28.545 80.4766H27.3274C20.7887 80.4766 14.6558 78.0958 10.0561 73.7463C5.4564 69.3969 2.88599 63.6281 2.88599 57.4931C2.88599 44.7652 13.8441 34.4638 27.3274 34.4638L28.4999 34.418C29.7626 34.418 30.935 33.9144 31.8369 33.0903C32.7388 32.2662 33.1898 31.1674 33.1898 29.977C33.1898 24.0251 35.67 18.4853 40.1344 14.2731C44.5988 10.1068 50.5062 7.77184 56.8195 7.77184H56.9097L56.9548 8.04654L56.9999 7.77184C57.045 7.77184 57.045 7.77184 57.0901 7.77184C63.4034 7.77184 69.3108 10.061 73.7752 14.2731C78.2396 18.4395 80.7199 24.0251 80.7199 29.977C80.7199 32.4035 82.8393 34.3722 85.4097 34.418L86.6273 34.4638C100.111 34.4638 111.069 44.7652 111.069 57.4473C111.069 70.1294 100.111 80.4308 86.6273 80.4308H85.4548C84.1922 80.4766 83.0197 80.9344 82.1178 81.7585C81.2159 82.5826 80.765 83.6814 80.765 84.8718C80.765 90.8237 78.2847 96.3635 73.8203 100.576C69.3559 104.834 63.4485 107.169 57.1352 107.169ZM56.9097 8.41281C50.7317 8.41281 44.9596 10.6562 40.5854 14.731C36.2111 18.8515 33.8211 24.254 33.8211 30.0228C33.8211 31.3505 33.28 32.6325 32.2879 33.5481C31.2958 34.4638 29.988 35.0132 28.5901 35.059L27.3725 35.1048C14.2048 35.1048 3.47222 45.1314 3.47222 57.4931C3.47222 63.5365 5.95244 69.1222 10.4619 73.3801C14.9714 77.5922 20.9691 79.9272 27.3725 79.9272H28.5901C31.4762 79.9729 33.8211 82.2621 33.8211 84.9634C33.8211 90.7321 36.2111 96.1346 40.5854 100.209C44.9596 104.284 50.7317 106.528 56.9097 106.528H57.1803C63.3583 106.528 69.1304 104.284 73.4596 100.209C77.7887 96.1346 80.2238 90.7321 80.2238 84.9634C80.2238 83.6356 80.765 82.3537 81.757 81.438C82.7491 80.4766 84.0569 79.9729 85.4548 79.9272H86.6724C99.8401 79.9272 110.573 69.9005 110.573 57.5389V57.4931C110.573 45.1314 99.8401 35.1048 86.6724 35.1048L85.4548 35.059C82.5688 35.0132 80.2238 32.7698 80.2238 30.0228C80.2238 24.254 77.8338 18.8057 73.4596 14.731C69.0854 10.6562 63.3132 8.41281 57.1803 8.41281C57.0901 8.41281 57.0901 8.41281 57.045 8.41281H56.9097Z" fill="#0062D8"/>
<path d="M65.0268 50.9002C65.9287 49.8014 67.2364 49.1146 68.6795 49.2062C68.7246 49.2062 68.7697 49.2062 68.8148 49.2062H79.3219C82.704 49.2062 85.4097 51.999 85.4097 55.387V61.5678C85.4097 65.0016 82.704 67.7486 79.3219 67.7486H68.8148C67.3266 67.7486 66.1542 68.9848 66.1542 70.4499V81.1175C66.1542 84.5513 63.4485 87.2983 60.0663 87.2983H53.9785C50.5964 87.2983 47.8907 84.5513 47.8907 81.1175V70.4499C47.8907 68.939 46.6732 67.7029 45.185 67.7029H34.6779C31.2958 67.7029 28.5901 64.9558 28.5901 61.522V55.387C28.5901 51.9532 31.3409 49.2062 34.6779 49.2062H45.1399C45.3203 49.2062 45.4556 49.2062 45.636 49.1604C47.1241 48.8857 48.5671 49.5725 49.469 50.7629C51.1376 52.9147 53.708 54.334 56.6391 54.334H57.9469C60.833 54.2882 63.3583 52.9605 65.0268 50.9002Z" fill="#036FF1"/>
<path d="M52.265 47.3291C52.4905 47.3291 52.7611 47.3749 52.9866 47.4206C52.7611 46.0013 51.9945 44.8567 50.6416 44.0784C49.1084 43.2085 47.5752 43.2085 46.087 44.1242C44.9597 44.811 44.3283 45.864 43.8774 47.1001C43.6068 47.8327 43.4715 48.611 43.2911 49.3893C42.8853 51.2207 42.4794 53.052 42.0736 54.8834C41.9834 55.2039 42.2089 55.2039 42.4343 55.2955C42.6598 55.3412 42.75 55.2955 42.7951 55.0665C43.2461 53.052 43.697 51.0833 44.1029 49.0689C44.3283 47.97 44.644 46.8254 45.2753 45.9098C46.0419 44.811 47.0791 44.17 48.432 44.17C50.2358 44.17 51.8592 45.5435 52.265 47.3291Z" fill="white"/>
<path d="M75.3086 46.2303C75.7595 46.2303 75.8948 46.3676 75.985 46.7797C76.0752 47.2833 76.1203 47.8327 76.1654 48.3363C76.1654 48.5652 76.2556 48.6568 76.4811 48.7484C77.4731 49.0689 78.2848 49.664 78.826 50.5797C79.0064 50.9002 79.0064 51.0376 78.6907 51.2207C78.2398 51.4954 78.1496 51.4954 77.879 51.0376C77.428 50.3508 76.7516 50.0761 75.985 49.893C75.2635 49.7556 74.542 49.8472 73.8655 50.1219C73.3695 50.305 73.0087 50.6713 72.7382 51.1291C72.6029 51.4038 72.4676 51.4496 72.197 51.3123C72.1068 51.2665 72.0166 51.1749 71.8814 51.1291C71.701 50.9918 71.701 50.8544 71.7912 50.6255C72.2872 49.6183 73.144 49.0231 74.1361 48.7026C74.3616 48.611 74.4518 48.5194 74.4518 48.2905C74.4969 47.7869 74.4969 47.2833 74.5871 46.7797C74.6322 46.3676 74.8125 46.2303 75.3086 46.2303Z" fill="white"/>
<path d="M81.4415 60.1028C81.4415 60.7895 81.3513 61.2931 81.216 61.8425C80.9454 62.8498 80.1337 63.4908 79.1416 63.4908C78.9613 63.4908 78.7809 63.4908 78.6005 63.4908C78.3299 63.4908 78.2397 63.3534 78.2397 63.1245C78.2397 62.8956 78.2848 62.7124 78.5554 62.7124C78.7358 62.7124 78.9613 62.7124 79.1416 62.7124C79.773 62.7124 80.1788 62.392 80.4043 61.8425C80.72 61.1558 80.72 60.4232 80.6749 59.6907C80.4043 56.9895 79.5475 54.4713 78.5103 52.0448C78.4652 51.9532 78.3299 51.8159 78.4652 51.7243C78.6005 51.587 78.7809 51.4954 78.9613 51.4496C79.0515 51.4496 79.0965 51.5412 79.0965 51.6328C80.1788 54.1051 81.0356 56.6232 81.3513 59.3244C81.3964 59.5534 81.3964 59.8738 81.4415 60.1028Z" fill="white"/>
<path d="M69.1306 60.1485C69.1757 58.6377 69.4914 57.1726 69.8972 55.7533C70.258 54.4256 70.754 53.0978 71.2952 51.8159C71.3403 51.7243 71.3854 51.587 71.4305 51.4954C71.4755 51.4038 71.5657 51.358 71.6559 51.4496C71.7461 51.4954 71.7912 51.5412 71.8814 51.587C72.1069 51.6785 72.1069 51.8159 72.0167 51.999C71.7912 52.5026 71.5657 53.0063 71.3854 53.5557C70.7991 55.0665 70.3031 56.6232 70.0325 58.2714C69.8521 59.2787 69.7619 60.2859 69.9423 61.2931C69.9874 61.6136 70.0776 61.9341 70.3031 62.2088C70.5286 62.5293 70.8442 62.7124 71.2952 62.7582C71.5206 62.7582 71.701 62.7582 71.9265 62.7582C72.1971 62.7582 72.3324 62.8498 72.2873 63.1245C72.2873 63.4908 72.2873 63.4908 71.8814 63.5365C71.1148 63.5823 70.3933 63.445 69.8521 62.804C69.5365 62.4377 69.3561 61.9799 69.2659 61.4763C69.1757 61.0184 69.1306 60.6064 69.1306 60.1485Z" fill="white"/>
<path d="M78.0142 63.0787C78.0142 63.1245 78.0142 63.1245 78.0142 63.0787C78.0142 64.0402 77.9691 64.0402 77.0672 63.9944C76.7967 63.9944 76.6614 63.857 76.6614 63.5823C76.6614 63.216 76.6614 62.8498 76.6614 62.5293C76.6614 62.4835 76.6614 62.4377 76.6614 62.3919C76.7516 62.0715 77.0221 62.1172 77.6535 62.1172C77.924 62.1172 78.0142 62.3004 78.0142 62.5293C78.0142 62.7582 78.0142 62.9413 78.0142 63.0787Z" fill="white"/>
<path d="M72.5579 63.0787C72.5579 62.9871 72.5579 62.8956 72.5579 62.7582C72.5579 62.163 72.6481 62.1172 73.1892 62.1172C73.2794 62.1172 73.3696 62.1172 73.5049 62.1172C73.7754 62.1172 73.9107 62.2546 73.9107 62.5293C73.9107 62.8956 73.9107 63.2618 73.9107 63.5823C73.9107 63.857 73.7303 63.9486 73.5049 63.9944C72.603 64.0859 72.5579 64.0402 72.5579 63.0787Z" fill="white"/>
<path d="M41.6678 55.4328C43.2912 55.4328 44.5088 56.7147 44.5088 58.363C44.5088 59.9654 43.201 61.3389 41.6678 61.3389C40.0895 61.3389 38.7817 60.0112 38.7817 58.4087C38.8268 56.7147 40.0895 55.4328 41.6678 55.4328ZM41.6678 60.6064C42.8854 60.6064 43.8775 59.5991 43.8775 58.3172C43.8775 57.0352 42.8854 56.0738 41.6678 56.0738C40.4503 56.0738 39.4582 57.081 39.4582 58.363C39.4582 59.5991 40.4503 60.6064 41.6678 60.6064Z" fill="white"/>
<path d="M41.7129 59.5991C41.0364 59.5991 40.4502 59.0039 40.4502 58.3172C40.4502 57.6304 41.0364 57.0352 41.6678 57.0352C42.3442 57.0352 42.8853 57.5846 42.8853 58.3172C42.9304 59.0039 42.3442 59.5991 41.7129 59.5991Z" fill="white"/>
<path d="M67.7776 38.3097C67.7776 44.17 63.0877 48.9315 57.3155 48.9315C51.5434 48.9315 46.8535 44.17 46.8535 38.3097C46.8535 32.4493 51.5434 27.6878 57.3155 27.6878C63.0877 27.7336 67.7776 32.4493 67.7776 38.3097Z" fill="#37E9F2"/>
</svg>
